<mxfile host="app.diagrams.net" modified="2023-12-18T03:08:33.192Z" agent="Mozilla/5.0 (Macintosh; Intel Mac OS X 10_15_7) AppleWebKit/537.36 (KHTML, like Gecko) Chrome/120.0.0.0 Safari/537.36" etag="zyMuDMZ2dGb9mWcEJ5_x" version="22.1.11" type="device">
  <diagram name="Page-1" id="c7558073-3199-34d8-9f00-42111426c3f3">
    <mxGraphModel dx="1195" dy="724" grid="1" gridSize="10" guides="1" tooltips="1" connect="1" arrows="1" fold="1" page="1" pageScale="1" pageWidth="826" pageHeight="1169" background="none" math="0" shadow="0">
      <root>
        <mxCell id="0" />
        <mxCell id="1" parent="0" />
        <mxCell id="HjSXeppqrixHy1YAfukc-146" value="" style="group" vertex="1" connectable="0" parent="1">
          <mxGeometry x="35.00000000000006" y="40" width="756" height="630" as="geometry" />
        </mxCell>
        <mxCell id="HjSXeppqrixHy1YAfukc-116" value="" style="rounded=1;whiteSpace=wrap;html=1;dashed=1;dashPattern=8 8;fillColor=none;" vertex="1" parent="HjSXeppqrixHy1YAfukc-146">
          <mxGeometry x="261.49999999999994" y="232" width="386.5" height="398" as="geometry" />
        </mxCell>
        <mxCell id="3" value="Users" style="whiteSpace=wrap;align=center;verticalAlign=middle;fontStyle=1;strokeWidth=3;fillColor=#FFFFCC" parent="HjSXeppqrixHy1YAfukc-146" vertex="1">
          <mxGeometry x="282.99999999999994" width="90" height="60" as="geometry" />
        </mxCell>
        <mxCell id="36" value="" style="edgeStyle=none;noEdgeStyle=1;strokeColor=#990000;strokeWidth=2;entryX=0.5;entryY=0;entryDx=0;entryDy=0;" parent="HjSXeppqrixHy1YAfukc-146" source="3" target="HjSXeppqrixHy1YAfukc-96" edge="1">
          <mxGeometry width="100" height="100" relative="1" as="geometry">
            <mxPoint x="-187.00000000000006" y="-610" as="sourcePoint" />
            <mxPoint x="-21.000000000000057" y="36.65662650602417" as="targetPoint" />
          </mxGeometry>
        </mxCell>
        <mxCell id="HjSXeppqrixHy1YAfukc-96" value="LoadBalancer" style="whiteSpace=wrap;align=center;verticalAlign=middle;fontStyle=1;strokeWidth=3;fillColor=#d5e8d4;strokeColor=#82b366;gradientColor=none;rounded=1;" vertex="1" parent="HjSXeppqrixHy1YAfukc-146">
          <mxGeometry x="283" y="90" width="90" height="60" as="geometry" />
        </mxCell>
        <mxCell id="HjSXeppqrixHy1YAfukc-97" value="CDN" style="whiteSpace=wrap;align=center;verticalAlign=middle;fontStyle=1;strokeWidth=3;fillColor=#d5e8d4;strokeColor=#82b366;gradientColor=none;rounded=1;" vertex="1" parent="HjSXeppqrixHy1YAfukc-146">
          <mxGeometry x="150" y="150" width="90" height="60" as="geometry" />
        </mxCell>
        <mxCell id="HjSXeppqrixHy1YAfukc-99" value="" style="edgeStyle=none;noEdgeStyle=1;strokeColor=#990000;strokeWidth=2;exitX=0;exitY=0.5;exitDx=0;exitDy=0;entryX=0.5;entryY=0;entryDx=0;entryDy=0;" edge="1" parent="HjSXeppqrixHy1YAfukc-146" source="HjSXeppqrixHy1YAfukc-96" target="HjSXeppqrixHy1YAfukc-97">
          <mxGeometry width="100" height="100" relative="1" as="geometry">
            <mxPoint x="327.99999999999994" y="150" as="sourcePoint" />
            <mxPoint x="245.99999999999994" y="169" as="targetPoint" />
            <Array as="points">
              <mxPoint x="194.99999999999994" y="120" />
            </Array>
          </mxGeometry>
        </mxCell>
        <mxCell id="HjSXeppqrixHy1YAfukc-100" value="WAF" style="whiteSpace=wrap;align=center;verticalAlign=middle;fontStyle=1;strokeWidth=3;fillColor=#d5e8d4;strokeColor=#82b366;gradientColor=none;rounded=1;" vertex="1" parent="HjSXeppqrixHy1YAfukc-146">
          <mxGeometry x="421" y="150" width="90" height="60" as="geometry" />
        </mxCell>
        <mxCell id="HjSXeppqrixHy1YAfukc-102" value="" style="edgeStyle=none;noEdgeStyle=1;strokeColor=#990000;strokeWidth=2;exitX=1;exitY=0.5;exitDx=0;exitDy=0;entryX=0.5;entryY=0;entryDx=0;entryDy=0;" edge="1" parent="HjSXeppqrixHy1YAfukc-146" source="HjSXeppqrixHy1YAfukc-96" target="HjSXeppqrixHy1YAfukc-100">
          <mxGeometry width="100" height="100" relative="1" as="geometry">
            <mxPoint x="292.99999999999994" y="130" as="sourcePoint" />
            <mxPoint x="204.99999999999994" y="160" as="targetPoint" />
            <Array as="points">
              <mxPoint x="464.99999999999994" y="120" />
            </Array>
          </mxGeometry>
        </mxCell>
        <mxCell id="HjSXeppqrixHy1YAfukc-103" value="Cloud Storage" style="whiteSpace=wrap;align=center;verticalAlign=middle;fontStyle=1;strokeWidth=3;fillColor=#dae8fc;strokeColor=#6c8ebf;rounded=1;" vertex="1" parent="HjSXeppqrixHy1YAfukc-146">
          <mxGeometry y="359" width="90" height="60" as="geometry" />
        </mxCell>
        <mxCell id="HjSXeppqrixHy1YAfukc-104" value="" style="edgeStyle=none;noEdgeStyle=1;strokeColor=#990000;strokeWidth=2;exitX=0;exitY=0.5;exitDx=0;exitDy=0;entryX=0.5;entryY=0;entryDx=0;entryDy=0;" edge="1" parent="HjSXeppqrixHy1YAfukc-146" source="HjSXeppqrixHy1YAfukc-97" target="HjSXeppqrixHy1YAfukc-103">
          <mxGeometry width="100" height="100" relative="1" as="geometry">
            <mxPoint x="292.99999999999994" y="130" as="sourcePoint" />
            <mxPoint x="204.99999999999994" y="160" as="targetPoint" />
            <Array as="points">
              <mxPoint x="44.99999999999994" y="180" />
            </Array>
          </mxGeometry>
        </mxCell>
        <mxCell id="HjSXeppqrixHy1YAfukc-105" value="Storage Service" style="whiteSpace=wrap;align=center;verticalAlign=middle;fontStyle=1;strokeWidth=3;fillColor=#f5f5f5;strokeColor=#666666;rounded=1;fontColor=#333333;" vertex="1" parent="HjSXeppqrixHy1YAfukc-146">
          <mxGeometry x="286" y="260" width="90" height="60" as="geometry" />
        </mxCell>
        <mxCell id="HjSXeppqrixHy1YAfukc-107" value="AI Service" style="whiteSpace=wrap;align=center;verticalAlign=middle;fontStyle=1;strokeWidth=3;fillColor=#f5f5f5;strokeColor=#666666;rounded=1;fontColor=#333333;" vertex="1" parent="HjSXeppqrixHy1YAfukc-146">
          <mxGeometry x="285.99999999999994" y="465" width="90" height="60" as="geometry" />
        </mxCell>
        <mxCell id="HjSXeppqrixHy1YAfukc-108" value="Order Service" style="whiteSpace=wrap;align=center;verticalAlign=middle;fontStyle=1;strokeWidth=3;fillColor=#f5f5f5;strokeColor=#666666;rounded=1;fontColor=#333333;" vertex="1" parent="HjSXeppqrixHy1YAfukc-146">
          <mxGeometry x="408" y="260" width="90" height="60" as="geometry" />
        </mxCell>
        <mxCell id="HjSXeppqrixHy1YAfukc-109" value="Menu Service" style="whiteSpace=wrap;align=center;verticalAlign=middle;fontStyle=1;strokeWidth=3;fillColor=#f5f5f5;strokeColor=#666666;rounded=1;fontColor=#333333;" vertex="1" parent="HjSXeppqrixHy1YAfukc-146">
          <mxGeometry x="407.99999999999994" y="465" width="90" height="60" as="geometry" />
        </mxCell>
        <mxCell id="HjSXeppqrixHy1YAfukc-110" value="User Service" style="whiteSpace=wrap;align=center;verticalAlign=middle;fontStyle=1;strokeWidth=3;fillColor=#f5f5f5;strokeColor=#666666;rounded=1;fontColor=#333333;" vertex="1" parent="HjSXeppqrixHy1YAfukc-146">
          <mxGeometry x="528" y="260" width="90" height="60" as="geometry" />
        </mxCell>
        <mxCell id="HjSXeppqrixHy1YAfukc-111" value="Mail Service" style="whiteSpace=wrap;align=center;verticalAlign=middle;fontStyle=1;strokeWidth=3;fillColor=#f5f5f5;strokeColor=#666666;rounded=1;fontColor=#333333;" vertex="1" parent="HjSXeppqrixHy1YAfukc-146">
          <mxGeometry x="528" y="465" width="90" height="60" as="geometry" />
        </mxCell>
        <mxCell id="HjSXeppqrixHy1YAfukc-112" value="Web Service" style="whiteSpace=wrap;align=center;verticalAlign=middle;fontStyle=1;strokeWidth=3;fillColor=#f5f5f5;strokeColor=#666666;rounded=1;fontColor=#333333;" vertex="1" parent="HjSXeppqrixHy1YAfukc-146">
          <mxGeometry x="149.99999999999994" y="359" width="90" height="60" as="geometry" />
        </mxCell>
        <mxCell id="HjSXeppqrixHy1YAfukc-113" value="" style="edgeStyle=none;noEdgeStyle=1;strokeColor=#000000;strokeWidth=2;exitX=0;exitY=0.5;exitDx=0;exitDy=0;entryX=1;entryY=0.5;entryDx=0;entryDy=0;" edge="1" parent="HjSXeppqrixHy1YAfukc-146" source="HjSXeppqrixHy1YAfukc-105" target="HjSXeppqrixHy1YAfukc-103">
          <mxGeometry width="100" height="100" relative="1" as="geometry">
            <mxPoint x="235.99999999999994" y="530" as="sourcePoint" />
            <mxPoint x="34.99999999999994" y="509" as="targetPoint" />
            <Array as="points">
              <mxPoint x="124.99999999999994" y="290" />
              <mxPoint x="124.99999999999994" y="389" />
            </Array>
          </mxGeometry>
        </mxCell>
        <mxCell id="HjSXeppqrixHy1YAfukc-115" value="" style="edgeStyle=none;noEdgeStyle=1;strokeColor=#990000;strokeWidth=2;exitX=0.5;exitY=1;exitDx=0;exitDy=0;" edge="1" parent="HjSXeppqrixHy1YAfukc-146" source="HjSXeppqrixHy1YAfukc-97" target="HjSXeppqrixHy1YAfukc-112">
          <mxGeometry width="100" height="100" relative="1" as="geometry">
            <mxPoint x="124.99999999999994" as="sourcePoint" />
            <mxPoint x="261.56677524429955" y="539" as="targetPoint" />
          </mxGeometry>
        </mxCell>
        <mxCell id="HjSXeppqrixHy1YAfukc-132" value="" style="edgeStyle=orthogonalEdgeStyle;rounded=0;orthogonalLoop=1;jettySize=auto;html=1;" edge="1" parent="HjSXeppqrixHy1YAfukc-146" source="HjSXeppqrixHy1YAfukc-119" target="HjSXeppqrixHy1YAfukc-108">
          <mxGeometry relative="1" as="geometry" />
        </mxCell>
        <mxCell id="HjSXeppqrixHy1YAfukc-119" value="Azure&#xa;SQL Server" style="whiteSpace=wrap;align=center;verticalAlign=middle;fontStyle=1;strokeWidth=3;fillColor=#dae8fc;strokeColor=#6c8ebf;rounded=1;" vertex="1" parent="HjSXeppqrixHy1YAfukc-146">
          <mxGeometry x="408" y="337" width="90" height="60" as="geometry" />
        </mxCell>
        <mxCell id="HjSXeppqrixHy1YAfukc-120" value="Firestore" style="whiteSpace=wrap;align=center;verticalAlign=middle;fontStyle=1;strokeWidth=3;fillColor=#dae8fc;strokeColor=#6c8ebf;rounded=1;" vertex="1" parent="HjSXeppqrixHy1YAfukc-146">
          <mxGeometry x="528" y="337" width="90" height="60" as="geometry" />
        </mxCell>
        <mxCell id="HjSXeppqrixHy1YAfukc-121" value="Cloud Identity" style="whiteSpace=wrap;align=center;verticalAlign=middle;fontStyle=1;strokeWidth=3;fillColor=#e1d5e7;strokeColor=#9673a6;rounded=1;" vertex="1" parent="HjSXeppqrixHy1YAfukc-146">
          <mxGeometry x="666" y="260" width="90" height="60" as="geometry" />
        </mxCell>
        <mxCell id="HjSXeppqrixHy1YAfukc-122" value="Azure&#xa;Postgress&#xa;pgVector" style="whiteSpace=wrap;align=center;verticalAlign=middle;fontStyle=1;strokeWidth=3;fillColor=#dae8fc;strokeColor=#6c8ebf;rounded=1;" vertex="1" parent="HjSXeppqrixHy1YAfukc-146">
          <mxGeometry x="285.99999999999994" y="545" width="90" height="60" as="geometry" />
        </mxCell>
        <mxCell id="HjSXeppqrixHy1YAfukc-123" value="MongoDB&#xa;Altas" style="whiteSpace=wrap;align=center;verticalAlign=middle;fontStyle=1;strokeWidth=3;fillColor=#dae8fc;strokeColor=#6c8ebf;rounded=1;" vertex="1" parent="HjSXeppqrixHy1YAfukc-146">
          <mxGeometry x="407.74999999999994" y="545" width="90" height="60" as="geometry" />
        </mxCell>
        <mxCell id="HjSXeppqrixHy1YAfukc-124" value="Cloud SQL&#xa;Postgress" style="whiteSpace=wrap;align=center;verticalAlign=middle;fontStyle=1;strokeWidth=3;fillColor=#dae8fc;strokeColor=#6c8ebf;rounded=1;" vertex="1" parent="HjSXeppqrixHy1YAfukc-146">
          <mxGeometry x="528" y="545" width="90" height="60" as="geometry" />
        </mxCell>
        <mxCell id="HjSXeppqrixHy1YAfukc-125" value="Azure&#xa;Mail Service" style="whiteSpace=wrap;align=center;verticalAlign=middle;fontStyle=1;strokeWidth=3;fillColor=#e1d5e7;strokeColor=#9673a6;rounded=1;" vertex="1" parent="HjSXeppqrixHy1YAfukc-146">
          <mxGeometry x="666" y="540" width="90" height="60" as="geometry" />
        </mxCell>
        <mxCell id="HjSXeppqrixHy1YAfukc-126" value="Pub/sub event sync" style="shape=process;whiteSpace=wrap;align=center;verticalAlign=middle;size=0.0475;fontStyle=1;strokeWidth=3;fillColor=#FFCCCC" vertex="1" parent="HjSXeppqrixHy1YAfukc-146">
          <mxGeometry x="270.99999999999994" y="410" width="369" height="42" as="geometry" />
        </mxCell>
        <mxCell id="HjSXeppqrixHy1YAfukc-127" value="message&#xa;queue" style="shape=process;whiteSpace=wrap;align=center;verticalAlign=middle;size=0.0475;fontStyle=1;strokeWidth=3;fillColor=#FFCCCC" vertex="1" parent="HjSXeppqrixHy1YAfukc-146">
          <mxGeometry x="665" y="474" width="90" height="42" as="geometry" />
        </mxCell>
        <mxCell id="HjSXeppqrixHy1YAfukc-128" value="OpenAI API" style="whiteSpace=wrap;align=center;verticalAlign=middle;fontStyle=1;strokeWidth=3;fillColor=#e1d5e7;strokeColor=#9673a6;rounded=1;" vertex="1" parent="HjSXeppqrixHy1YAfukc-146">
          <mxGeometry x="140.99999999999994" y="465" width="90" height="60" as="geometry" />
        </mxCell>
        <mxCell id="HjSXeppqrixHy1YAfukc-129" value="Batch Service" style="whiteSpace=wrap;align=center;verticalAlign=middle;fontStyle=1;strokeWidth=3;fillColor=#f8cecc;strokeColor=#b85450;rounded=1;" vertex="1" parent="HjSXeppqrixHy1YAfukc-146">
          <mxGeometry x="285.99999999999994" y="337" width="90" height="60" as="geometry" />
        </mxCell>
        <mxCell id="HjSXeppqrixHy1YAfukc-130" value="" style="edgeStyle=none;noEdgeStyle=1;strokeColor=#000000;strokeWidth=2;exitX=0.5;exitY=1;exitDx=0;exitDy=0;entryX=0.5;entryY=0;entryDx=0;entryDy=0;" edge="1" parent="HjSXeppqrixHy1YAfukc-146" source="HjSXeppqrixHy1YAfukc-108" target="HjSXeppqrixHy1YAfukc-119">
          <mxGeometry width="100" height="100" relative="1" as="geometry">
            <mxPoint x="295.99999999999994" y="300" as="sourcePoint" />
            <mxPoint x="99.99999999999994" y="399" as="targetPoint" />
            <Array as="points" />
          </mxGeometry>
        </mxCell>
        <mxCell id="HjSXeppqrixHy1YAfukc-131" value="" style="edgeStyle=none;noEdgeStyle=1;strokeColor=#000000;strokeWidth=2;exitX=0.502;exitY=1.029;exitDx=0;exitDy=0;entryX=0.5;entryY=0;entryDx=0;entryDy=0;exitPerimeter=0;" edge="1" parent="HjSXeppqrixHy1YAfukc-146" source="HjSXeppqrixHy1YAfukc-110" target="HjSXeppqrixHy1YAfukc-120">
          <mxGeometry width="100" height="100" relative="1" as="geometry">
            <mxPoint x="462.99999999999994" y="330" as="sourcePoint" />
            <mxPoint x="462.99999999999994" y="347" as="targetPoint" />
            <Array as="points" />
          </mxGeometry>
        </mxCell>
        <mxCell id="HjSXeppqrixHy1YAfukc-133" value="" style="edgeStyle=none;noEdgeStyle=1;strokeColor=#000000;strokeWidth=2;exitX=0.5;exitY=1;exitDx=0;exitDy=0;" edge="1" parent="HjSXeppqrixHy1YAfukc-146" source="HjSXeppqrixHy1YAfukc-107" target="HjSXeppqrixHy1YAfukc-122">
          <mxGeometry width="100" height="100" relative="1" as="geometry">
            <mxPoint x="462.99999999999994" y="330" as="sourcePoint" />
            <mxPoint x="462.99999999999994" y="347" as="targetPoint" />
            <Array as="points" />
          </mxGeometry>
        </mxCell>
        <mxCell id="HjSXeppqrixHy1YAfukc-134" value="" style="edgeStyle=none;noEdgeStyle=1;strokeColor=#000000;strokeWidth=2;exitX=0.5;exitY=1;exitDx=0;exitDy=0;entryX=0.5;entryY=0;entryDx=0;entryDy=0;" edge="1" parent="HjSXeppqrixHy1YAfukc-146" source="HjSXeppqrixHy1YAfukc-109" target="HjSXeppqrixHy1YAfukc-123">
          <mxGeometry width="100" height="100" relative="1" as="geometry">
            <mxPoint x="340.99999999999994" y="535" as="sourcePoint" />
            <mxPoint x="340.99999999999994" y="555" as="targetPoint" />
            <Array as="points" />
          </mxGeometry>
        </mxCell>
        <mxCell id="HjSXeppqrixHy1YAfukc-135" value="" style="edgeStyle=none;noEdgeStyle=1;strokeColor=#000000;strokeWidth=2;exitX=0.5;exitY=1;exitDx=0;exitDy=0;" edge="1" parent="HjSXeppqrixHy1YAfukc-146" source="HjSXeppqrixHy1YAfukc-111" target="HjSXeppqrixHy1YAfukc-124">
          <mxGeometry width="100" height="100" relative="1" as="geometry">
            <mxPoint x="462.99999999999994" y="535" as="sourcePoint" />
            <mxPoint x="462.99999999999994" y="555" as="targetPoint" />
            <Array as="points" />
          </mxGeometry>
        </mxCell>
        <mxCell id="HjSXeppqrixHy1YAfukc-136" value="" style="edgeStyle=none;noEdgeStyle=1;strokeColor=#000000;strokeWidth=2;exitX=1;exitY=0.5;exitDx=0;exitDy=0;entryX=0;entryY=0.5;entryDx=0;entryDy=0;" edge="1" parent="HjSXeppqrixHy1YAfukc-146" source="HjSXeppqrixHy1YAfukc-111" target="HjSXeppqrixHy1YAfukc-127">
          <mxGeometry width="100" height="100" relative="1" as="geometry">
            <mxPoint x="462.99999999999994" y="535" as="sourcePoint" />
            <mxPoint x="462.99999999999994" y="555" as="targetPoint" />
            <Array as="points" />
          </mxGeometry>
        </mxCell>
        <mxCell id="HjSXeppqrixHy1YAfukc-137" value="" style="edgeStyle=none;noEdgeStyle=1;strokeColor=#000000;strokeWidth=2;exitX=0.5;exitY=1;exitDx=0;exitDy=0;" edge="1" parent="HjSXeppqrixHy1YAfukc-146" source="HjSXeppqrixHy1YAfukc-127" target="HjSXeppqrixHy1YAfukc-125">
          <mxGeometry width="100" height="100" relative="1" as="geometry">
            <mxPoint x="628" y="505" as="sourcePoint" />
            <mxPoint x="675" y="505" as="targetPoint" />
            <Array as="points" />
          </mxGeometry>
        </mxCell>
        <mxCell id="HjSXeppqrixHy1YAfukc-138" value="" style="edgeStyle=none;noEdgeStyle=1;strokeColor=#000000;strokeWidth=2;exitX=1;exitY=0.5;exitDx=0;exitDy=0;" edge="1" parent="HjSXeppqrixHy1YAfukc-146" source="HjSXeppqrixHy1YAfukc-110" target="HjSXeppqrixHy1YAfukc-121">
          <mxGeometry width="100" height="100" relative="1" as="geometry">
            <mxPoint x="694" y="388.5799999999999" as="sourcePoint" />
            <mxPoint x="741" y="388.5799999999999" as="targetPoint" />
            <Array as="points" />
          </mxGeometry>
        </mxCell>
        <mxCell id="HjSXeppqrixHy1YAfukc-139" value="" style="edgeStyle=none;noEdgeStyle=1;strokeColor=#000000;strokeWidth=2;exitX=0;exitY=0.5;exitDx=0;exitDy=0;entryX=1;entryY=0.5;entryDx=0;entryDy=0;" edge="1" parent="HjSXeppqrixHy1YAfukc-146" source="HjSXeppqrixHy1YAfukc-107" target="HjSXeppqrixHy1YAfukc-128">
          <mxGeometry width="100" height="100" relative="1" as="geometry">
            <mxPoint x="628" y="300" as="sourcePoint" />
            <mxPoint x="676" y="300" as="targetPoint" />
            <Array as="points" />
          </mxGeometry>
        </mxCell>
        <mxCell id="HjSXeppqrixHy1YAfukc-140" value="" style="edgeStyle=elbowEdgeStyle;elbow=vertical;strokeColor=#990000;strokeWidth=2;exitX=1;exitY=0.5;exitDx=0;exitDy=0;" edge="1" parent="HjSXeppqrixHy1YAfukc-146" source="HjSXeppqrixHy1YAfukc-112" target="HjSXeppqrixHy1YAfukc-116">
          <mxGeometry width="100" height="100" relative="1" as="geometry">
            <mxPoint x="140.99999999999994" y="550" as="sourcePoint" />
            <mxPoint x="76.99999999999994" y="550" as="targetPoint" />
          </mxGeometry>
        </mxCell>
        <mxCell id="HjSXeppqrixHy1YAfukc-141" value="" style="edgeStyle=none;noEdgeStyle=1;strokeColor=#990000;strokeWidth=2;exitX=0.484;exitY=1.002;exitDx=0;exitDy=0;entryX=0.527;entryY=0.003;entryDx=0;entryDy=0;entryPerimeter=0;exitPerimeter=0;" edge="1" parent="HjSXeppqrixHy1YAfukc-146" source="HjSXeppqrixHy1YAfukc-100" target="HjSXeppqrixHy1YAfukc-116">
          <mxGeometry width="100" height="100" relative="1" as="geometry">
            <mxPoint x="204.99999999999994" y="220" as="sourcePoint" />
            <mxPoint x="204.99999999999994" y="369" as="targetPoint" />
            <Array as="points">
              <mxPoint x="464.99999999999994" y="220" />
            </Array>
          </mxGeometry>
        </mxCell>
        <mxCell id="HjSXeppqrixHy1YAfukc-145" style="edgeStyle=orthogonalEdgeStyle;rounded=0;orthogonalLoop=1;jettySize=auto;html=1;entryX=0.5;entryY=1;entryDx=0;entryDy=0;" edge="1" parent="HjSXeppqrixHy1YAfukc-146" source="HjSXeppqrixHy1YAfukc-143" target="HjSXeppqrixHy1YAfukc-112">
          <mxGeometry relative="1" as="geometry">
            <Array as="points">
              <mxPoint x="122.99999999999994" y="450" />
              <mxPoint x="194.99999999999994" y="450" />
            </Array>
          </mxGeometry>
        </mxCell>
        <mxCell id="HjSXeppqrixHy1YAfukc-143" value="&lt;b&gt;DevOp Platform&lt;/b&gt;" style="shape=hexagon;perimeter=hexagonPerimeter2;whiteSpace=wrap;html=1;fixedSize=1;fillColor=#ffe6cc;strokeColor=#d79b00;" vertex="1" parent="HjSXeppqrixHy1YAfukc-146">
          <mxGeometry x="20.999999999999943" y="540" width="204" height="80" as="geometry" />
        </mxCell>
        <mxCell id="HjSXeppqrixHy1YAfukc-144" style="edgeStyle=orthogonalEdgeStyle;rounded=0;orthogonalLoop=1;jettySize=auto;html=1;entryX=-0.004;entryY=0.872;entryDx=0;entryDy=0;entryPerimeter=0;" edge="1" parent="HjSXeppqrixHy1YAfukc-146" source="HjSXeppqrixHy1YAfukc-143" target="HjSXeppqrixHy1YAfukc-116">
          <mxGeometry relative="1" as="geometry" />
        </mxCell>
      </root>
    </mxGraphModel>
  </diagram>
</mxfile>
